<svg width="20" height="20" viewBox="0 0 20 20" fill="none" xmlns="http://www.w3.org/2000/svg">
<path d="M16.6417 8.33301H3.30833V14.9997C3.30833 17.4997 4.14167 18.333 6.64167 18.333H13.3083C15.8083 18.333 16.6417 17.4997 16.6417 14.9997V8.33301Z" stroke="#EC1D23" stroke-width="1.5" stroke-miterlimit="10" stroke-linecap="round" stroke-linejoin="round"/>
<path d="M17.9167 5.83366V6.66699C17.9167 7.58366 17.475 8.33366 16.25 8.33366H3.74999C2.47499 8.33366 2.08333 7.58366 2.08333 6.66699V5.83366C2.08333 4.91699 2.47499 4.16699 3.74999 4.16699H16.25C17.475 4.16699 17.9167 4.91699 17.9167 5.83366Z" stroke="#EC1D23" stroke-width="1.5" stroke-miterlimit="10" stroke-linecap="round" stroke-linejoin="round"/>
<path d="M9.7 4.16686H5.1C4.81667 3.85853 4.825 3.38353 5.125 3.08353L6.30833 1.9002C6.61667 1.59186 7.125 1.59186 7.43333 1.9002L9.7 4.16686Z" stroke="#EC1D23" stroke-width="1.5" stroke-miterlimit="10" stroke-linecap="round" stroke-linejoin="round"/>
<path d="M14.8917 4.16686H10.2917L12.5583 1.9002C12.8667 1.59186 13.375 1.59186 13.6833 1.9002L14.8667 3.08353C15.1667 3.38353 15.175 3.85853 14.8917 4.16686Z" stroke="#EC1D23" stroke-width="1.5" stroke-miterlimit="10" stroke-linecap="round" stroke-linejoin="round"/>
<path d="M7.45 8.33301V12.6163C7.45 13.283 8.18333 13.6747 8.74166 13.3163L9.525 12.7997C9.80833 12.6163 10.1667 12.6163 10.4417 12.7997L11.1833 13.2997C11.7333 13.6663 12.475 13.2747 12.475 12.608V8.33301H7.45Z" stroke="#EC1D23" stroke-width="1.5" stroke-miterlimit="10" stroke-linecap="round" stroke-linejoin="round"/>
</svg>
