<svg width="22" height="22" viewBox="0 0 22 22" fill="none" xmlns="http://www.w3.org/2000/svg">
<path fill-rule="evenodd" clip-rule="evenodd" d="M9.24675 0.68275C10.1657 0.10575 11.3338 0.10575 12.2528 0.68275L14.2607 1.94375C14.3868 2.02375 14.5257 2.08075 14.6707 2.11375L16.9827 2.64175C18.0397 2.88375 18.8657 3.70975 19.1077 4.76675L19.6357 7.07875C19.6688 7.22375 19.7257 7.36275 19.8057 7.48875L21.0667 9.49675C21.6437 10.4157 21.6437 11.5838 21.0667 12.5028L19.8057 14.5107C19.7257 14.6368 19.6688 14.7757 19.6357 14.9207L19.1077 17.2327C18.8657 18.2897 18.0397 19.1157 16.9827 19.3577L14.6707 19.8857C14.5257 19.9188 14.3868 19.9757 14.2607 20.0557L12.2528 21.3167C11.3338 21.8937 10.1657 21.8937 9.24675 21.3167L7.23875 20.0557C7.11275 19.9757 6.97375 19.9188 6.82875 19.8857L4.51675 19.3577C3.45975 19.1157 2.63375 18.2897 2.39175 17.2327L1.86375 14.9207C1.83075 14.7757 1.77375 14.6368 1.69375 14.5107L0.43275 12.5028C-0.14425 11.5838 -0.14425 10.4157 0.43275 9.49675L1.69375 7.48875C1.77375 7.36275 1.83075 7.22375 1.86375 7.07875L2.39175 4.76675C2.63375 3.70975 3.45975 2.88375 4.51675 2.64175L6.82875 2.11375C6.97375 2.08075 7.11275 2.02375 7.23875 1.94375L9.24675 0.68275ZM10.7498 3.74975C6.74875 3.74975 3.49975 6.99875 3.49975 10.9998C3.49975 15.0007 6.74875 18.2498 10.7498 18.2498C14.7507 18.2498 17.9998 15.0007 17.9998 10.9998C17.9998 6.99875 14.7507 3.74975 10.7498 3.74975ZM10.7498 5.24975C13.9237 5.24975 16.4998 7.82575 16.4998 10.9998C16.4998 14.1737 13.9237 16.7498 10.7498 16.7498C7.57575 16.7498 4.99975 14.1737 4.99975 10.9998C4.99975 7.82575 7.57575 5.24975 10.7498 5.24975ZM10.7498 13.2618L12.1248 14.1077C12.4327 14.2977 12.8247 14.2867 13.1217 14.0798C13.4187 13.8728 13.5648 13.5097 13.4938 13.1547L13.1648 11.5078L14.2327 10.4388C14.4847 10.1868 14.5667 9.81075 14.4427 9.47775C14.3177 9.14375 14.0097 8.91275 13.6547 8.88775L12.2198 8.78475L11.5858 7.30775C11.4428 6.97375 11.1138 6.75675 10.7498 6.75675C10.3857 6.75675 10.0567 6.97375 9.91375 7.30775L9.27975 8.78475L7.84475 8.88775C7.48975 8.91275 7.18175 9.14375 7.05675 9.47775C6.93275 9.81075 7.01475 10.1868 7.26675 10.4388L8.33475 11.5078L8.00575 13.1547C7.93475 13.5097 8.08075 13.8728 8.37775 14.0798C8.67475 14.2867 9.06675 14.2977 9.37475 14.1077L10.7498 13.2618Z" fill="#FFEAD9"/>
</svg>
